:SAMPLES-PER-SECOND 24
:FULLY-SPECIFIED
:DEGREES
407
root  -8.1167 37.3148 63.1302 -177.136 -39.4104 167.496
RightUpLeg  -32.5161 -35.8441 -7.31203
RightLeg  36.1992 -23.4044 -17.5266
RightFoot  2.01548 0.841433 -7.06056
RightToes  -1.74623e-010 0 -2.59999e-017
Spine  4.20648 -2.32006 -8.32056
Spine1  15.9872 -4.3805 4.31667
HEad  -15.6472 -25.051 9.804
LeftShoulder1  2.3381 -3.86798 -25.5605
LeftArm  21.85 -25.7179 -48.6325
LeftForeArm  108.976 -78.0267 -118.691
LeftHand  0.10309 6.09391 18.5686
RightShoulder  3.33181 5.77734 29.9846
RightArm  0.194044 0.905113 26.4496
RightForeArm  2.59379 40.8419 9.51125
RightHand  -0.884433 0.759942 -16.7632
LeftUpLeg  14.0062 9.78548 7.0274
LeftLeg  17.3774 0.245775 -1.23119
LeftFoot  -17.5323 -1.06255 -21.3051
LeftToes  -6.27559e-011 -2.10356e-011 8.24929e-012
408
root  -8.00129 37.409 63.9565 -176.859 -42.4185 167.698
RightUpLeg  -31.4516 -36.7898 -9.50077
RightLeg  33.5588 -18.1984 -12.802
RightFoot  6.66333 0.685345 -4.02488
RightToes  -1.74623e-010 0 -2.59999e-017
Spine  4.70403 -1.32151 -7.91071
Spine1  16.9625 -3.14949 3.61585
HEad  -14.2889 -30.2322 13.5045
LeftShoulder1  2.48759 -3.83497 -27.8211
LeftArm  21.4722 -20.3913 -43.6592
LeftForeArm  103.974 -78.8838 -110.855
LeftHand  0.261675 7.28076 17.021
RightShoulder  3.61916 5.95679 32.3734
RightArm  -2.77178 -4.69759 26.8583
RightForeArm  2.26204 36.8764 8.27687
RightHand  -1.17975 0.593038 -22.7068
LeftUpLeg  11.5092 8.09095 6.04552
LeftLeg  18.1276 -0.127116 -0.692503
LeftFoot  -18.3082 -1.16511 -20.7224
LeftToes  -6.27559e-011 -2.10356e-011 8.24929e-012
409
root  -7.94405 37.7853 64.2382 -177.261 -43.142 169.341
RightUpLeg  -28.9759 -31.6151 -12.4487
RightLeg  31.4255 -6.69567 -4.62727
RightFoot  10.8846 -0.0757446 0.767844
RightToes  -1.74623e-010 0 -2.59999e-017
Spine  4.16933 -0.325079 -6.2959
Spine1  16.4866 -1.59656 2.31404
HEad  -10.3286 -33.7884 14.2214
LeftShoulder1  2.4647 -3.61536 -28.5625
LeftArm  19.8612 -8.07861 -38.5528
LeftForeArm  111.521 -78.6315 -115.623
LeftHand  0.288148 7.72969 15.1988
RightShoulder  3.75206 6.01431 33.5395
RightArm  -1.05961 -11.3294 29.8179
RightForeArm  -1.76383 30.669 6.80421
RightHand  -1.35229 0.918225 -24.721
LeftUpLeg  10.4043 6.90311 6.5852
LeftLeg  17.2305 1.16872 -0.424277
LeftFoot  -16.6239 -0.856394 -20.5125
LeftToes  -6.27559e-011 -2.10356e-011 8.24929e-012
410
root  -7.82746 38.1754 64.1481 -177.719 -43.8588 171.155
RightUpLeg  -26.0141 -23.7883 -15.9561
RightLeg  31.2491 5.71097 3.50912
RightFoot  11.1013 -1.4938 7.96497
RightToes  -1.74623e-010 0 -2.59999e-017
Spine  3.18199 -0.108815 -6.02648
Spine1  15.987 -1.38187 2.16805
HEad  -7.13961 -34.7759 13.732
LeftShoulder1  2.3829 -3.40776 -28.4139
LeftArm  17.4869 7.47847 -33.347
LeftForeArm  123.23 -76.7896 -128.938
LeftHand  0.264959 7.74861 14.0336
RightShoulder  3.76792 6.01193 33.7154
RightArm  5.65921 -16.1295 32.9158
RightForeArm  -7.40506 23.5216 5.75829
RightHand  -0.877211 0.314761 -17.5625
LeftUpLeg  9.79771 5.81266 7.86787
LeftLeg  15.7284 2.16986 -0.368109
LeftFoot  -13.4612 -0.28884 -19.778
LeftToes  -6.27559e-011 -2.10356e-011 8.24929e-012
411
root  -7.60937 38.4782 63.9866 -177.834 -46.3228 172.337
RightUpLeg  -22.8232 -17.4119 -19.4358
RightLeg  31.7834 11.839 7.59821
RightFoot  8.08459 -1.88625 11.325
RightToes  -1.74623e-010 0 -2.59999e-017
Spine  2.52597 -0.566088 -7.0661
Spine1  16.0952 -2.54919 3.88151
HEad  -7.07691 -34.7874 14.6202
LeftShoulder1  2.3724 -3.42485 -28.1714
LeftArm  15.7376 20.6777 -28.9808
LeftForeArm  126.32 -75.186 -135.499
LeftHand  0.192213 7.41794 12.2825
RightShoulder  3.80695 6.04811 33.9726
RightArm  7.67392 -20.5751 34.346
RightForeArm  -3.74454 18.8021 7.48319
RightHand  -0.262633 -1.20917 -7.02506
LeftUpLeg  8.81853 5.20152 9.2819
LeftLeg  14.394 1.36413 -0.281114
LeftFoot  -10.7379 0.168256 -19.5344
LeftToes  -6.27559e-011 -2.10356e-011 8.24929e-012
412
root  -7.33462 38.605 63.8384 -177.787 -49.5197 172.81
RightUpLeg  -19.3412 -11.6471 -22.6967
RightLeg  31.7458 7.14752 4.5171
RightFoot  4.442 -0.800199 5.91693
RightToes  -1.74623e-010 0 -2.59999e-017
Spine  2.30969 -0.894358 -7.30787
Spine1  16.7289 -3.47871 5.24202
HEad  -8.68484 -35.5053 16.0643
LeftShoulder1  2.31888 -3.52148 -26.9026
LeftArm  15.6088 28.4896 -26.7139
LeftForeArm  126.733 -75.0029 -136.131
LeftHand  0.168434 7.30478 11.6138
RightShoulder  3.95448 6.19195 34.8919
RightArm  8.86324 -25.6024 34.7384
RightForeArm  1.5922 17.4841 8.40664
RightHand  -0.0338793 -2.35901 -0.826997
LeftUpLeg  8.05746 4.87495 10.3853
LeftLeg  12.8427 -0.230908 -0.250125
LeftFoot  -9.662 0.349266 -19.7222
LeftToes  -6.27559e-011 -2.10356e-011 8.24929e-012
413
root  -7.00251 38.46 63.6052 -178.378 -52.1291 172.865
RightUpLeg  -15.0863 -4.82911 -25.2734
RightLeg  31.3575 -3.67775 -2.64724
RightFoot  2.27568 0.370995 -2.97474
RightToes  -1.74623e-010 0 -2.59999e-017
Spine  2.85758 -0.598605 -6.59996
Spine1  17.6932 -3.5628 5.56796
HEad  -10.5446 -37.0713 16.7993
LeftShoulder1  2.23437 -3.51406 -25.6879
LeftArm  16.7094 30.1268 -25.5852
LeftForeArm  127.282 -75.3867 -135.026
LeftHand  0.180481 7.43393 11.5888
RightShoulder  4.12698 6.35408 35.9522
RightArm  13.6651 -29.7735 34.6313
RightForeArm  2.48609 18.021 8.0955
RightHand  0.0092562 -2.45246 0.914773
LeftUpLeg  8.30595 4.32822 11.0099
LeftLeg  11.69 -1.50568 0.382087
LeftFoot  -9.957 0.306507 -20.2777
LeftToes  -6.27559e-011 -2.10356e-011 8.24929e-012
414
root  -6.59441 38.1315 63.2174 -179.343 -53.2188 172.393
RightUpLeg  -10.3855 1.09632 -26.6949
RightLeg  30.3396 -9.68189 -6.30086
RightFoot  0.339077 0.919333 -8.96896
RightToes  -1.74623e-010 0 -2.59999e-017
Spine  3.72191 0.248186 -6.38564
Spine1  19.1703 -3.18106 5.79669
HEad  -12.3433 -38.2203 17.7334
LeftShoulder1  2.16871 -3.33597 -25.5506
LeftArm  16.9239 27.6198 -25.3181
LeftForeArm  126.468 -75.7819 -133.529
LeftHand  0.142587 7.41738 9.70289
RightShoulder  4.23627 6.45261 36.6195
RightArm  19.6471 -31.4899 33.8517
RightForeArm  3.15888 18.9291 7.44504
RightHand  0.0459169 -2.08204 2.0615
LeftUpLeg  9.7161 3.95034 11.5741
LeftLeg  10.9984 -2.17401 1.16289
LeftFoot  -10.9145 0.14467 -21.2862
LeftToes  -6.27559e-011 -2.10356e-011 8.24929e-012
415
root  -6.13082 37.8095 62.6366 -179.459 -52.2849 171.115
RightUpLeg  -6.09558 4.31184 -27.0853
RightLeg  27.0227 -10.2546 -5.8553
RightFoot  -3.94222 0.607262 -9.68
RightToes  -1.74623e-010 0 -2.59999e-017
Spine  3.71456 1.13158 -6.60721
Spine1  20.9413 -2.34958 5.52714
HEad  -12.4734 -38.2595 18.6466
LeftShoulder1  2.0878 -3.0606 -25.6492
LeftArm  15.612 23.6463 -26.4837
LeftForeArm  123.185 -76.4712 -130.225
LeftHand  0.129338 7.62127 8.24204
RightShoulder  4.28002 6.48835 36.8977
RightArm  20.4527 -30.3241 32.7608
RightForeArm  7.23548 18.7266 7.36488
RightHand  0.11101 -2.22509 4.67306
LeftUpLeg  11.8728 4.13818 12.2506
LeftLeg  9.69343 -2.45731 1.11057
LeftFoot  -11.3491 0.0656231 -22.9914
LeftToes  -6.27559e-011 -2.10356e-011 8.24929e-012
416
root  -5.56523 37.5584 61.8959 -178.768 -49.5693 170.31
RightUpLeg  -4.90284 6.45771 -26.4085
RightLeg  24.2289 -11.6025 -5.85444
RightFoot  -8.51385 0.0773721 -5.15185
RightToes  -1.74623e-010 0 -2.59999e-017
Spine  2.95002 1.50092 -5.40537
Spine1  21.57 -0.973184 3.61722
HEad  -10.0546 -37.6133 17.9534
LeftShoulder1  2.06602 -2.88811 -26.1885
LeftArm  13.5936 19.4873 -28.4125
LeftForeArm  117.943 -77.4726 -124.429
LeftHand  0.184695 8.04352 9.34829
RightShoulder  4.21017 6.42187 36.4934
RightArm  13.4932 -27.1019 32.0482
RightForeArm  11.0854 17.2917 8.08357
RightHand  0.104271 -2.73221 5.22924
LeftUpLeg  13.2448 4.38725 12.8339
LeftLeg  8.27134 -0.862065 1.2164
LeftFoot  -10.504 0.250111 -25.2031
LeftToes  -6.27559e-011 -2.10356e-011 8.24929e-012
417
root  -4.75999 37.3149 61.1254 -178.64 -45.5256 171.228
RightUpLeg  -9.1482 8.00182 -24.825
RightLeg  27.041 -11.2382 -6.3821
RightFoot  -11.1264 -0.0752003 -0.0732048
RightToes  -1.74623e-010 0 -2.59999e-017
Spine  3.12639 1.43496 -2.98007
Spine1  20.853 0.0929852 1.23495
HEad  -8.59363 -35.616 16.4509
LeftShoulder1  2.16954 -2.9686 -27.4261
LeftArm  10.3067 16.101 -31.8197
LeftForeArm  114.291 -78.2184 -119.247
LeftHand  0.205598 7.95454 10.5265
RightShoulder  3.95872 6.19339 34.9295
RightArm  7.73131 -21.9888 31.7097
RightForeArm  7.55347 18.3725 7.22188
RightHand  -0.000945467 -2.78641 0.653236
LeftUpLeg  12.9629 5.07596 14.275
LeftLeg  9.00915 2.9923 1.97288
LeftFoot  -9.0405 0.595805 -26.5565
LeftToes  -6.27559e-011 -2.10356e-011 8.24929e-012
418
root  -3.69373 37.0324 60.2657 -179.701 -41.8624 172.776
RightUpLeg  -14.5864 7.11509 -22.6334
RightLeg  33.0706 -6.08554 -4.47492
RightFoot  -12.3169 -0.0623552 2.57582
RightToes  -1.74623e-010 0 -2.59999e-017
Spine  4.93233 0.93198 -2.31527
Spine1  20.5138 -0.439734 0.904224
HEad  -10.4075 -31.7101 15.4106
LeftShoulder1  2.25043 -3.17162 -27.6281
LeftArm  6.65583 12.2139 -38.1288
LeftForeArm  109.711 -78.8779 -113.134
LeftHand  0.186306 7.54718 11.3457
RightShoulder  3.69836 5.97625 33.1345
RightArm  5.80732 -14.3238 30.7401
RightForeArm  1.2849 23.8968 5.04882
RightHand  -0.179888 -2.47494 -6.78024
LeftUpLeg  12.0957 6.69735 17.5054
LeftLeg  12.3334 4.54441 2.47622
LeftFoot  -7.31988 1.06056 -28.3124
LeftToes  -6.27559e-011 -2.10356e-011 8.24929e-012
419
root  -2.60681 36.9773 59.2628 178.801 -40.8068 174.32
RightUpLeg  -15.947 2.16253 -19.8697
RightLeg  35.7169 -0.253848 -0.471142
RightFoot  -13.0281 -0.0200049 4.60469
RightToes  -1.74623e-010 0 -2.59999e-017
Spine  6.88628 -0.295038 -2.77061
Spine1  20.5482 -2.5358 2.84003
HEad  -12.0896 -27.5563 13.5738
LeftShoulder1  2.22695 -3.33435 -26.4442
LeftArm  6.43146 5.6439 -44.4529
LeftForeArm  96.9994 -79.5854 -100.275
LeftHand  0.190332 7.28165 12.995
RightShoulder  3.6055 5.95058 32.2552
RightArm  -2.69093 -6.12449 28.5788
RightForeArm  6.15924 31.9894 6.68018
RightHand  -0.283766 -2.96021 -13.2775
LeftUpLeg  10.8206 6.62519 20.7506
LeftLeg  15.2409 4.87991 3.52395
LeftFoot  -2.84035 2.35922 -30.4952
LeftToes  -6.27559e-011 -2.10356e-011 8.24929e-012
420
root  -1.69592 37.2417 58.213 178.308 -41.2794 176.096
RightUpLeg  -15.541 -5.65731 -16.9357
RightLeg  34.9623 4.78579 3.33451
RightFoot  -13.0493 0.0101528 6.64818
RightToes  -1.74623e-010 0 -2.59999e-017
Spine  7.48175 -1.75278 -1.94819
Spine1  19.5096 -4.46479 4.89702
HEad  -11.6031 -24.9342 10.8771
LeftShoulder1  2.17484 -3.35932 -25.5311
LeftArm  9.54832 -1.74812 -48.1081
LeftForeArm  85.2364 -79.7407 -88.768
LeftHand  0.142631 6.79613 13.3519
RightShoulder  3.59265 5.96478 32.0605
RightArm  -10.5442 -0.103055 26.4532
RightForeArm  12.7193 42.0796 9.27094
RightHand  -0.220864 -3.85665 -15.9593
LeftUpLeg  7.68084 1.51079 22.1674
LeftLeg  18.2105 13.1837 6.3774
LeftFoot  5.53752 3.98123 -26.678
LeftToes  -6.27559e-011 -2.10356e-011 8.24929e-012
